HIERARCHY
ROOT Hips
{
	OFFSET 0.000000 0.000000 0.000000 
	CHANNELS 6 Xposition Yposition Zposition Zrotation Yrotation Xrotation
	JOINT LeftUpLeg
	{
		OFFSET 1.363060 -1.794630 0.839290 
		CHANNELS 3 Zrotation Yrotation Xrotation
		JOINT LeftLeg
		{
			OFFSET 2.448110 -6.726130 0.000000 
			CHANNELS 3 Zrotation Yrotation Xrotation
			JOINT LeftFoot
			{
				OFFSET 2.562200 -7.039590 0.000000 
				CHANNELS 3 Zrotation Yrotation Xrotation
				JOINT LeftToeBase
				{
					OFFSET 0.157640 -0.433110 2.322550 
					CHANNELS 3 Zrotation Yrotation Xrotation
					End Site
					{
						OFFSET 0.000000 0.000000 0.000000 
					}
				}
			}
		}
	}
	JOINT RightUpLeg
	{
		OFFSET -1.305520 -1.794630 0.839290 
		CHANNELS 3 Zrotation Yrotation Xrotation
		JOINT RightLeg
		{
			OFFSET -2.542530 -6.985550 0.000000 
			CHANNELS 3 Zrotation Yrotation Xrotation
			JOINT RightFoot
			{
				OFFSET -2.568260 -7.056230 0.000000 
				CHANNELS 3 Zrotation Yrotation Xrotation
				JOINT RightToeBase
				{
					OFFSET -0.164730 -0.452590 2.363150 
					CHANNELS 3 Zrotation Yrotation Xrotation
					End Site
					{
						OFFSET 0.000000 0.000000 0.000000 
					}
				}
			}
		}
	}
	JOINT Spine
	{
		OFFSET 0.028270 2.035590 -0.193380 
		CHANNELS 3 Zrotation Yrotation Xrotation
		JOINT Spine1
		{
			OFFSET 0.056720 2.048850 -0.042750 
			CHANNELS 3 Zrotation Yrotation Xrotation
			JOINT Neck1
			{
				OFFSET -0.054170 1.746240 0.172020 
				CHANNELS 3 Zrotation Yrotation Xrotation
				JOINT Head
				{
					OFFSET 0.104070 1.761360 -0.123970 
					CHANNELS 3 Zrotation Yrotation Xrotation
					End Site
					{
						OFFSET 0.000000 0.000000 0.000000 
					}
				}
			}
			JOINT LeftArm
			{
				OFFSET 3.362410 1.200890 -0.311210 
				CHANNELS 3 Zrotation Yrotation Xrotation
				JOINT LeftForeArm
				{
					OFFSET 4.983000 -0.000000 -0.000000 
					CHANNELS 3 Zrotation Yrotation Xrotation
					JOINT LeftHand
					{
						OFFSET 3.483560 -0.000000 -0.000000 
						CHANNELS 3 Zrotation Yrotation Xrotation
						JOINT LeftHandIndex1
						{
							OFFSET 0.715260 -0.000000 -0.000000 
							CHANNELS 3 Zrotation Yrotation Xrotation
							End Site
							{
								OFFSET 0.000000 0.000000 0.000000 
							}
						}
					}
				}
			}
			JOINT RightArm
			{
				OFFSET -3.136600 1.374050 -0.404650 
				CHANNELS 3 Zrotation Yrotation Xrotation
				JOINT RightForeArm
				{
					OFFSET -5.241900 -0.000000 -0.000000 
					CHANNELS 3 Zrotation Yrotation Xrotation
					JOINT RightHand
					{
						OFFSET -3.444170 -0.000000 -0.000000 
						CHANNELS 3 Zrotation Yrotation Xrotation
						JOINT RightHandIndex1
						{
							OFFSET -0.622530 -0.000000 -0.000000 
							CHANNELS 3 Zrotation Yrotation Xrotation
							End Site
							{
								OFFSET 0.000000 0.000000 0.000000 
							}
						}
					}
				}
			}
		}
	}
}
MOTION
Frames: 9
Frame Time: 0.041667
9.770586 18.030691 26.870298 -177.973651 3.755537 -176.268931 -18.837826 -20.541735 -4.578632 -3.037769 6.624768 19.144716 -4.354106 15.411289 -8.078995 1.326900 -7.295000 -20.592200 29.002231 17.412746 -0.067342 3.142249 -4.978294 16.816705 4.963534 -21.839320 -13.923385 -0.001400 -0.244500 0.671700 1.815020 0.920345 8.258233 -4.832972 0.390110 -13.990444 15.774396 -2.889882 6.543660 2.993300 -1.179100 3.342000 -85.999198 8.528537 23.940888 23.527751 -22.747223 -5.514360 1.692996 0.498975 12.351012 -7.125000 0.000000 0.000000 84.996410 -9.620732 39.886170 -21.942879 24.426174 -5.907685 0.667054 -0.793538 24.568151 7.125000 0.000000 0.000000 
9.771165 18.032196 26.871108 -177.972714 3.783402 -176.205462 -18.834406 -20.450566 -4.703662 -3.024205 6.666341 19.243666 -4.326543 15.344113 -8.147740 1.379300 -7.431800 -21.001100 28.967516 17.351635 -0.206304 3.128200 -5.020964 16.909080 4.914858 -21.679401 -13.932091 -0.001200 -0.225100 0.618500 1.919623 0.927340 7.843949 -4.826901 0.387451 -14.231641 15.846650 -2.906831 6.790086 3.035500 -1.167900 3.409100 -86.091370 8.661695 23.704571 23.474914 -22.697707 -5.500182 1.694553 0.504754 12.461345 -7.125000 0.000000 0.000000 84.947301 -9.885535 39.825160 -21.959164 24.423389 -5.882430 0.655795 -0.804847 24.624836 7.125000 0.000000 0.000000 
9.772091 18.031733 26.872846 -177.965253 3.880623 -176.120948 -18.791734 -20.282345 -4.907938 -3.008068 6.707527 19.338505 -4.281511 15.216847 -8.135576 1.386200 -7.449600 -21.054400 28.925053 17.290958 -0.403613 3.110796 -5.072020 17.022407 4.832135 -21.406976 -13.960062 -0.005400 -0.474700 1.304300 1.942123 0.949222 7.660956 -4.841601 0.395159 -14.332690 16.023972 -2.883641 6.822809 3.109400 -1.150100 3.411500 -86.167848 8.698810 23.424781 23.446075 -22.673596 -5.487959 1.697851 0.501953 12.651863 -7.125000 0.000000 0.000000 84.932702 -9.940905 39.577834 -22.002033 24.462008 -5.882914 0.644286 -0.813976 25.089191 7.125000 0.000000 0.000000 
9.771975 18.028954 26.872267 -177.926191 4.020117 -176.032468 -18.727863 -20.021095 -5.145953 -2.986853 6.750859 19.439025 -4.244120 15.099644 -8.008796 1.354800 -7.368100 -20.810600 28.931133 17.321609 -0.571229 3.091815 -5.131455 17.146649 4.795050 -21.279823 -13.913311 -0.010200 -0.652000 1.791700 2.011098 0.985458 7.500793 -4.866791 0.408442 -14.379099 15.943166 -2.880726 6.698347 3.072100 -1.163800 3.333700 -86.271666 8.733717 23.141328 23.433287 -22.669661 -5.485498 1.702180 0.499115 12.812196 -7.125000 0.000000 0.000000 84.948189 -9.940504 39.398127 -21.880381 24.361142 -5.893944 0.682509 -0.790010 24.943258 7.125000 0.000000 0.000000 
9.771975 18.027216 26.873077 -177.919649 4.065162 -175.932666 -18.690041 -19.803774 -5.371013 -2.963101 6.798520 19.556178 -4.125200 14.759772 -7.916389 1.223400 -7.015300 -19.760700 28.907044 17.304092 -0.757487 3.069827 -5.198850 17.285694 4.787971 -21.244124 -13.827743 -0.005100 -0.460700 1.266000 2.103515 0.980608 7.115467 -4.837196 0.402395 -14.547556 15.693128 -2.932647 6.779364 2.969800 -1.191100 3.325500 -86.360721 8.871825 22.986957 23.425224 -22.667138 -5.488511 1.704346 0.499122 12.899481 -7.125000 0.000000 0.000000 84.951186 -10.090170 39.371524 -21.806563 24.259257 -5.838804 0.678425 -0.795732 24.776920 7.125000 0.000000 0.000000 
9.771860 18.027448 26.873425 -177.923241 4.060486 -175.913619 -18.640850 -19.559190 -5.607678 -2.937757 6.840089 19.664195 -4.057069 14.552333 -7.762298 1.251600 -7.092900 -19.990800 28.879540 17.216089 -0.958476 3.038261 -5.271656 17.463738 4.768288 -21.151405 -13.713248 -0.001200 -0.221300 0.608100 2.042502 0.903842 7.639864 -4.828805 0.374912 -14.371144 15.541627 -2.894820 6.593660 2.903800 -1.187700 3.303800 -86.357105 8.551824 22.818243 23.375616 -22.614685 -5.462870 1.705819 0.501452 13.027632 -7.125000 0.000000 0.000000 84.934256 -9.775524 39.372343 -21.711114 24.146480 -5.797681 0.681171 -0.798142 24.751746 7.125000 0.000000 0.000000 
9.771860 18.026985 26.872151 -177.908473 4.040283 -175.796469 -18.589736 -19.271809 -5.901004 -2.918290 6.884010 19.749543 -4.074490 14.587124 -7.563623 1.473600 -7.670700 -21.718100 28.847948 17.163689 -1.234969 3.005232 -5.370072 17.685126 4.719441 -20.995487 -13.737938 -0.003800 -0.396800 1.090200 2.123028 0.857473 7.506664 -4.821069 0.350600 -14.410656 15.381359 -2.861084 6.606721 2.844400 -1.174600 3.304400 -86.450107 8.542448 22.657816 23.320388 -22.544040 -5.429639 1.702882 0.504499 13.165020 -7.125000 0.000000 0.000000 84.881559 -9.805987 39.452250 -21.677889 24.104901 -5.782961 0.683212 -0.799235 24.724082 7.125000 0.000000 0.000000 
9.771628 18.023974 26.872382 -177.960731 4.033404 -175.682380 -18.594233 -19.067458 -6.172753 -2.896974 6.933953 19.858504 -4.021157 14.436055 -7.459306 1.523400 -7.793400 -22.088200 28.734928 17.104797 -1.564334 2.968442 -5.479251 17.936864 4.661387 -20.813706 -13.844948 -0.006700 -0.530200 1.457000 2.047295 0.858083 7.493779 -4.806970 0.355723 -14.388376 15.536806 -2.819842 6.556043 2.905200 -1.153700 3.296100 -86.496367 8.440152 22.542359 23.267143 -22.488214 -5.409199 1.706887 0.504509 13.198434 -7.125000 0.000000 0.000000 84.925226 -9.812792 39.308312 -21.717706 24.152006 -5.798094 0.685537 -0.797680 24.775739 7.125000 0.000000 0.000000 
9.772207 18.020384 26.873772 -178.019165 4.063918 -175.623260 -18.623780 -18.901841 -6.403259 -2.866685 7.000645 20.025714 -3.950869 14.243953 -7.425836 1.472300 -7.667500 -21.708500 28.643842 17.031215 -1.853078 2.925968 -5.590375 18.203285 4.617929 -20.663743 -13.863058 -0.002000 -0.287300 0.789300 1.969488 0.881337 7.643465 -4.789638 0.377914 -14.314799 15.773204 -2.793617 6.421543 2.997300 -1.145100 3.262800 -86.507529 8.345303 22.531516 23.233976 -22.462749 -5.412091 1.712258 0.511539 13.079120 -7.125000 0.000000 0.000000 85.024128 -9.813529 39.075278 -21.788133 24.238417 -5.831899 0.679947 -0.794719 24.751506 7.125000 0.000000 0.000000 
